<?xml version="1.0" encoding="UTF-8"?>
<svg id="Layer_1" xmlns="http://www.w3.org/2000/svg" version="1.1" viewBox="0 0 95.4 50">
  <!-- Generator: Adobe Illustrator 29.8.2, SVG Export Plug-In . SVG Version: 2.1.1 Build 3)  -->
  <defs>
    <style>
      .st0 {
        fill: #999;
      }
    </style>
  </defs>
  <path class="st0" d="M47.7,0C21.36,0,0,11.19,0,25s21.36,25,47.7,25,47.7-11.2,47.7-25S74.04,0,47.7,0ZM47.7,45.78c-21.45,0-38.83-9.3-38.83-20.79S26.25,4.21,47.7,4.21s38.83,9.3,38.83,20.79-17.39,20.79-38.83,20.79Z"/>
  <path class="st0" d="M32.63,26.22c.45,5.41,6.49,9.38,15.81,9.38,7.22,0,11.24-1.79,13.71-4.52h8.68c-2.46,4.19-8.94,8.82-22.85,8.82-16.53,0-24.13-7.37-24.13-14.85,0-8.49,9.32-14.96,23.95-14.96,17.55,0,23.75,7.87,23.75,14.74,0,.5,0,.84-.09,1.4h-38.83ZM62.52,22.43c-.46-3.35-3.39-8.21-14.81-8.21-9.51,0-14.08,3.63-14.9,8.21h29.71Z"/>
</svg>